<svg width="40" height="40" viewBox="0 0 40 40" fill="none" xmlns="http://www.w3.org/2000/svg">
<g id="RocketLaunch">
<path id="Vector" opacity="0.2" d="M14.6982 28.8392C12.9304 34.1425 5.85938 34.1425 5.85938 34.1425C5.85938 34.1425 5.85937 27.0715 11.1627 25.3037L14.6982 28.8392Z" fill="#0B63E5"/>
<path id="Vector_2" opacity="0.2" d="M21.3569 27.4821L27.5888 21.2502L27.5888 28.3213L22.5354 33.3747L21.3569 27.4821Z" fill="#0B63E5" stroke="#0B63E5" stroke-width="2.5"/>
<path id="Vector_3" opacity="0.2" d="M11.6784 12.4111H18.7495L12.5176 18.643L6.625 17.4645L11.6784 12.4111Z" fill="#0B63E5" stroke="#0B63E5" stroke-width="2.5"/>
<path id="Vector_4" d="M14.6982 28.8392C12.9304 34.1425 5.85938 34.1425 5.85938 34.1425C5.85938 34.1425 5.85937 27.0715 11.1627 25.3037" stroke="#0B63E5" stroke-width="2.5" stroke-linecap="round" stroke-linejoin="round"/>
<path id="Vector_5" d="M30.6074 16.4646L20.0008 27.0712L12.9297 20.0002L23.5363 9.39357C27.5526 5.3773 31.5688 5.41648 33.2817 5.67203C33.5454 5.71134 33.7895 5.83433 33.978 6.02287C34.1666 6.21142 34.2896 6.45554 34.3289 6.71926C34.5844 8.43209 34.6236 12.4484 30.6074 16.4646Z" stroke="#0B63E5" stroke-width="2.5" stroke-linecap="round" stroke-linejoin="round"/>
<path id="Vector_6" d="M28.8388 18.2324V28.3213C28.8388 28.4854 28.8065 28.648 28.7437 28.7996C28.6809 28.9513 28.5888 29.0891 28.4727 29.2051L23.4193 34.2585C23.2593 34.4185 23.0589 34.5321 22.8395 34.5871C22.62 34.6422 22.3897 34.6366 22.1732 34.571C21.9567 34.5055 21.762 34.3824 21.6099 34.2148C21.4578 34.0473 21.3541 33.8417 21.3097 33.6198L20 27.0713" stroke="#0B63E5" stroke-width="2.5" stroke-linecap="round" stroke-linejoin="round"/>
<path id="Vector_7" d="M21.7672 11.1611H11.6784C11.5142 11.1611 11.3517 11.1935 11.2 11.2563C11.0484 11.3191 10.9106 11.4112 10.7945 11.5272L5.74112 16.5806C5.58113 16.7406 5.46757 16.941 5.41254 17.1605C5.35751 17.3799 5.36307 17.6102 5.42864 17.8268C5.4942 18.0433 5.6173 18.238 5.78483 18.3901C5.95235 18.5421 6.158 18.6459 6.37986 18.6903L12.9284 20" stroke="#0B63E5" stroke-width="2.5" stroke-linecap="round" stroke-linejoin="round"/>
</g>
</svg>
