<svg width="20" height="20" viewBox="0 0 20 20" fill="none" xmlns="http://www.w3.org/2000/svg">
<g clip-path="url(#clip0_876_7177)">
<path d="M19.7613 10.2302C19.7613 9.55044 19.7061 8.86699 19.5886 8.19824H10.1562V12.0491H15.5577C15.3335 13.291 14.6134 14.3897 13.5588 15.0878V17.5864H16.7813C18.6736 15.8448 19.7613 13.2726 19.7613 10.2302Z" fill="#4285F4"/>
<path d="M10.1565 20.0008C12.8535 20.0008 15.128 19.1152 16.7852 17.5867L13.5627 15.088C12.6661 15.698 11.5087 16.0434 10.1601 16.0434C7.55128 16.0434 5.33927 14.2833 4.54559 11.917H1.22021V14.4928C2.91781 17.8696 6.37546 20.0008 10.1565 20.0008Z" fill="#34A853"/>
<path d="M4.5417 11.9168C4.12281 10.6748 4.12281 9.32996 4.5417 8.08799V5.51221H1.22C-0.198334 8.33786 -0.198334 11.6669 1.22 14.4925L4.5417 11.9168Z" fill="#FBBC04"/>
<path d="M10.1565 3.95805C11.5821 3.936 12.9601 4.47247 13.9926 5.45722L16.8476 2.60218C15.0398 0.904587 12.6404 -0.0287217 10.1565 0.000673888C6.37546 0.000673888 2.91781 2.13185 1.22021 5.51234L4.54191 8.08813C5.33192 5.71811 7.54761 3.95805 10.1565 3.95805Z" fill="#EA4335"/>
</g>
<defs>
<clipPath id="clip0_876_7177">
<rect width="20" height="20" fill="white"/>
</clipPath>
</defs>
</svg>
