<svg width="15" height="16" viewBox="0 0 15 16" fill="none" xmlns="http://www.w3.org/2000/svg">
<path fill-rule="evenodd" clip-rule="evenodd" d="M13.5938 2.375H12.1875V1.4375H11.25V2.375H3.75V1.4375H2.8125V2.375H1.40625L0.9375 2.84375V14.0938L1.40625 14.5625H13.5938L14.0625 14.0938V2.84375L13.5938 2.375ZM13.125 13.625H1.875V5.1875H13.125V13.625ZM13.125 4.25H1.875V3.3125H13.125V4.25ZM3.75 8H2.8125V8.9375H3.75V8ZM2.8125 9.875H3.75V10.8125H2.8125V9.875ZM3.75 11.75H2.8125V12.6875H3.75V11.75ZM5.625 8H6.5625V8.9375H5.625V8ZM6.5625 9.875H5.625V10.8125H6.5625V9.875ZM5.625 11.75H6.5625V12.6875H5.625V11.75ZM6.5625 6.125H5.625V7.0625H6.5625V6.125ZM8.4375 8H9.375V8.9375H8.4375V8ZM9.375 9.875H8.4375V10.8125H9.375V9.875ZM8.4375 11.75H9.375V12.6875H8.4375V11.75ZM9.375 6.125H8.4375V7.0625H9.375V6.125ZM11.25 8H12.1875V8.9375H11.25V8ZM12.1875 9.875H11.25V10.8125H12.1875V9.875ZM11.25 6.125H12.1875V7.0625H11.25V6.125Z" fill="#0B63E5"/>
</svg>
